<?xml version="1.0" encoding="UTF-8"?>
<!DOCTYPE svg PUBLIC "-//W3C//DTD SVG 1.1//EN" "http://www.w3.org/Graphics/SVG/1.1/DTD/svg11.dtd">
<!-- Creator: CorelDRAW X6 -->
<svg xmlns="http://www.w3.org/2000/svg" xml:space="preserve" width="20.8333in" height="20.8333in" version="1.1" style="shape-rendering:geometricPrecision; text-rendering:geometricPrecision; image-rendering:optimizeQuality; fill-rule:evenodd; clip-rule:evenodd"
viewBox="0 0 20833 20833"
 xmlns:xlink="http://www.w3.org/1999/xlink">
 <defs>
  <style type="text/css">
   <![CDATA[
    .fil24 {fill:#443F48;fill-rule:nonzero}
    .fil12 {fill:#4C4552;fill-rule:nonzero}
    .fil11 {fill:#544D5D;fill-rule:nonzero}
    .fil6 {fill:#824A65;fill-rule:nonzero}
    .fil18 {fill:#8E504C;fill-rule:nonzero}
    .fil3 {fill:#965172;fill-rule:nonzero}
    .fil20 {fill:#968279;fill-rule:nonzero}
    .fil16 {fill:#A65C56;fill-rule:nonzero}
    .fil2 {fill:#AF5A83;fill-rule:nonzero}
    .fil17 {fill:#B3A580;fill-rule:nonzero}
    .fil19 {fill:#B69B90;fill-rule:nonzero}
    .fil23 {fill:#B97062;fill-rule:nonzero}
    .fil8 {fill:#BDA886;fill-rule:nonzero}
    .fil9 {fill:#C06861;fill-rule:nonzero}
    .fil5 {fill:#C67544;fill-rule:nonzero}
    .fil22 {fill:#D1C1A7;fill-rule:nonzero}
    .fil14 {fill:#D2C295;fill-rule:nonzero}
    .fil7 {fill:#D58A45;fill-rule:nonzero}
    .fil10 {fill:#D67F6D;fill-rule:nonzero}
    .fil15 {fill:#D9DAD9;fill-rule:nonzero}
    .fil0 {fill:#DEC39A;fill-rule:nonzero}
    .fil1 {fill:#E68749;fill-rule:nonzero}
    .fil13 {fill:#F4E3AF;fill-rule:nonzero}
    .fil21 {fill:#F5E1C2;fill-rule:nonzero}
    .fil4 {fill:#F9A24F;fill-rule:nonzero}
   ]]>
  </style>
 </defs>
 <g id="Layer_x0020_1">
  <metadata id="CorelCorpID_0Corel-Layer"/>
  <polygon class="fil0" points="3295,17261 4381,17261 4381,7051 3295,7051 "/>
  <polygon class="fil1" points="3805,5557 3856,5557 3856,5395 3805,5395 "/>
  <polygon class="fil1" points="3813,5410 3847,5410 3847,5248 3813,5248 "/>
  <polygon class="fil1" points="3818,5274 3843,5274 3843,5112 3818,5112 "/>
  <path class="fil2" d="M3904 5595l-141 0 0 1c-273,321 -885,589 -477,1040l-25 0 0 88 1147 0 0 -88 -25 0c409,-452 -206,-720 -479,-1041z"/>
  <path class="fil3" d="M3261 6725l0 -88 25 0 0 0c-97,-107 -136,-204 -136,-293 0,-288 405,-502 613,-747l0 -1 71 0 -50 0 0 1c-192,321 -624,589 -336,1040l-187 0 0 88zm573 -111l-160 0c-40,-144 -49,-281 -27,-420 20,-129 64,-247 107,-361 26,-70 53,-142 74,-217l5 0 0 997zm-183 0l-191 0c-46,-75 -74,-147 -83,-218 -8,-66 -1,-131 22,-198 44,-127 139,-245 232,-358 59,-72 119,-146 167,-223l8 0c-89,306 -270,569 -154,997z"/>
  <polygon class="fil0" points="3298,6971 4381,6971 4381,6725 3298,6725 "/>
  <polygon class="fil4" points="3261,6725 4407,6725 4407,6636 3261,6636 "/>
  <path class="fil4" d="M3872 5541l-77 0c-18,0 -32,14 -32,33l0 21 142 0 0 -21c0,-18 -15,-33 -32,-33z"/>
  <polygon class="fil5" points="3818,5146 3843,5146 3843,5120 3818,5120 "/>
  <polygon class="fil5" points="3813,5309 3847,5309 3847,5283 3813,5283 "/>
  <polygon class="fil5" points="3805,5495 3856,5495 3856,5469 3805,5469 "/>
  <path class="fil4" d="M3906 5084c-75,0 -135,-60 -135,-135 0,-19 4,-37 11,-54 -34,24 -56,64 -56,109 0,75 60,135 135,135 55,0 103,-33 124,-81 -22,16 -49,26 -79,26z"/>
  <path class="fil4" d="M3888 5238c0,32 -26,58 -58,58 -32,0 -58,-26 -58,-58 0,-32 26,-58 58,-58 32,0 58,26 58,58z"/>
  <path class="fil4" d="M3901 5410c0,39 -32,71 -71,71 -39,0 -71,-32 -71,-71 0,-39 32,-71 71,-71 39,0 71,32 71,71z"/>
  <path class="fil3" d="M4221 6636l-387 0 0 -22 161 0c40,-144 48,-281 27,-420 -20,-129 -64,-247 -107,-361 -26,-70 -53,-142 -74,-217l-6 0 0 -22 50 0c192,321 625,589 337,1041zm-358 -1019c89,306 270,569 154,997l191 0c46,-75 74,-147 83,-218 8,-66 1,-131 -22,-198 -44,-127 -139,-245 -232,-358 -59,-72 -119,-146 -167,-223l-8 0z"/>
  <path class="fil6" d="M3833 6636l-386 0c-288,-451 144,-719 336,-1040l0 -1 50 0 0 22 -5 0c-21,74 -48,147 -74,217 -43,114 -87,232 -107,361 -22,139 -13,276 27,420l160 0 0 22zm-37 -1019c-47,77 -108,151 -167,223 -93,113 -188,231 -232,358 -23,67 -30,132 -22,198 9,71 36,143 83,218l191 0c-116,-428 65,-691 154,-997l-8 0z"/>
  <polygon class="fil7" points="4221,6636 3447,6636 4221,6636 "/>
  <polygon class="fil8" points="3298,6741 4381,6741 4381,6725 3298,6725 "/>
  <polygon class="fil9" points="4496,11977 3179,11977 3295,12268 4381,12268 "/>
  <polygon class="fil9" points="3179,11977 4496,11977 4496,11568 3179,11568 "/>
  <path class="fil10" d="M4457 11861l-106 0 0 -258 106 0 0 258zm-141 0l-106 0 0 -258 106 0 0 258zm-141 0l-107 0 0 -258 107 0 0 258zm-141 0l-106 0 0 -258 106 0 0 258zm-141 0l-106 0 0 -258 106 0 0 258zm-141 0l-106 0 0 -258 106 0 0 258zm-141 0l-106 0 0 -258 106 0 0 258zm-141 0l-106 0 0 -258 106 0 0 258zm-141 0l-106 0 0 -258 106 0 0 258zm-146 -293l0 408 1317 0 0 -408 -1317 0z"/>
  <path class="fil9" d="M3262 11434c-46,37 -44,92 -44,92l0 43 44 0 44 0 0 -43c0,0 2,-54 -44,-92z"/>
  <path class="fil9" d="M3377 11434c-46,37 -44,92 -44,92l0 43 44 0 44 0 0 -43c0,0 2,-54 -44,-92z"/>
  <path class="fil9" d="M3492 11434c-46,37 -44,92 -44,92l0 43 44 0 44 0 0 -43c0,0 2,-54 -44,-92z"/>
  <path class="fil9" d="M3607 11434c-46,37 -44,92 -44,92l0 43 44 0 44 0 0 -43c0,0 2,-54 -44,-92z"/>
  <path class="fil9" d="M3723 11434c-46,37 -44,92 -44,92l0 43 44 0 44 0 0 -43c0,0 2,-54 -44,-92z"/>
  <path class="fil9" d="M3838 11434c-46,37 -44,92 -44,92l0 43 44 0 44 0 0 -43c0,0 2,-54 -44,-92z"/>
  <path class="fil9" d="M3953 11434c-46,37 -44,92 -44,92l0 43 44 0 44 0 0 -43c0,0 2,-54 -44,-92z"/>
  <path class="fil9" d="M4068 11434c-46,37 -44,92 -44,92l0 43 44 0 44 0 0 -43c0,0 2,-54 -44,-92z"/>
  <path class="fil9" d="M4183 11434c-46,37 -44,92 -44,92l0 43 44 0 44 0 0 -43c0,0 2,-54 -44,-92z"/>
  <path class="fil9" d="M4298 11434c-46,37 -44,92 -44,92l0 43 44 0 44 0 0 -43c0,0 2,-54 -44,-92z"/>
  <path class="fil9" d="M4413 11434c-46,37 -44,92 -44,92l0 43 44 0 44 0 0 -43c0,0 2,-54 -44,-92z"/>
  <polygon class="fil9" points="4496,9154 3179,9154 3295,9445 4381,9445 "/>
  <polygon class="fil9" points="3179,9154 4496,9154 4496,8746 3179,8746 "/>
  <path class="fil10" d="M4457 9039l-106 0 0 -257 106 0 0 257zm-141 0l-106 0 0 -257 106 0 0 257zm-141 0l-107 0 0 -257 107 0 0 257zm-141 0l-106 0 0 -257 106 0 0 257zm-141 0l-106 0 0 -257 106 0 0 257zm-141 0l-106 0 0 -257 106 0 0 257zm-141 0l-106 0 0 -257 106 0 0 257zm-141 0l-106 0 0 -257 106 0 0 257zm-141 0l-106 0 0 -257 106 0 0 257zm-146 -293l0 408 1317 0 0 -408 -1317 0z"/>
  <path class="fil9" d="M3262 8611c-46,37 -44,92 -44,92l0 43 44 0 44 0 0 -43c0,0 2,-54 -44,-92z"/>
  <path class="fil9" d="M3377 8611c-46,37 -44,92 -44,92l0 43 44 0 44 0 0 -43c0,0 2,-54 -44,-92z"/>
  <path class="fil9" d="M3492 8611c-46,37 -44,92 -44,92l0 43 44 0 44 0 0 -43c0,0 2,-54 -44,-92z"/>
  <path class="fil9" d="M3607 8611c-46,37 -44,92 -44,92l0 43 44 0 44 0 0 -43c0,0 2,-54 -44,-92z"/>
  <path class="fil9" d="M3723 8611c-46,37 -44,92 -44,92l0 43 44 0 44 0 0 -43c0,0 2,-54 -44,-92z"/>
  <path class="fil9" d="M3838 8611c-46,37 -44,92 -44,92l0 43 44 0 44 0 0 -43c0,0 2,-54 -44,-92z"/>
  <path class="fil9" d="M3953 8611c-46,37 -44,92 -44,92l0 43 44 0 44 0 0 -43c0,0 2,-54 -44,-92z"/>
  <path class="fil9" d="M4068 8611c-46,37 -44,92 -44,92l0 43 44 0 44 0 0 -43c0,0 2,-54 -44,-92z"/>
  <path class="fil9" d="M4183 8611c-46,37 -44,92 -44,92l0 43 44 0 44 0 0 -43c0,0 2,-54 -44,-92z"/>
  <path class="fil9" d="M4298 8611c-46,37 -44,92 -44,92l0 43 44 0 44 0 0 -43c0,0 2,-54 -44,-92z"/>
  <path class="fil9" d="M4413 8611c-46,37 -44,92 -44,92l0 43 44 0 44 0 0 -43c0,0 2,-54 -44,-92z"/>
  <polygon class="fil4" points="3247,7051 4428,7051 4428,6950 3247,6950 "/>
  <polygon class="fil8" points="3295,7090 4381,7090 4381,7051 3295,7051 "/>
  <path class="fil11" d="M4016 8169l-340 0 0 -503c0,-91 74,-165 165,-165l10 0c91,0 165,74 165,165l0 503z"/>
  <path class="fil12" d="M4016 8169l-112 0 0 -450c0,-92 -75,-167 -167,-167l-7 0c-3,0 -6,0 -9,0 30,-32 73,-51 120,-51l7 0c92,0 167,75 167,166l0 501z"/>
  <path class="fil10" d="M4016 8169l-340 0 0 -498c0,-94 76,-170 170,-170 94,0 170,76 170,170l0 498zm-170 -719c-122,0 -221,99 -221,221l0 549 442 0 0 -549c0,-122 -99,-221 -221,-221z"/>
  <path class="fil11" d="M4016 10727l-340 0 0 -503c0,-91 74,-165 165,-165l10 0c91,0 165,74 165,165l0 503z"/>
  <path class="fil12" d="M4016 10727l-112 0 0 -450c0,-92 -75,-166 -167,-166l-7 0c-3,0 -6,0 -9,0 30,-32 73,-51 120,-51l7 0c92,0 167,75 167,167l0 501z"/>
  <path class="fil10" d="M4016 10727l-340 0 0 -498c0,-94 76,-170 170,-170 94,0 170,76 170,170l0 498zm-170 -719c-122,0 -221,99 -221,221l0 549 442 0 0 -549c0,-122 -99,-221 -221,-221z"/>
  <polygon class="fil8" points="3737,17261 3512,17261 3677,14331 3737,14331 3677,14331 3677,14415 3706,14415 3706,14499 3737,14499 3737,14631 3661,14631 3661,14765 3737,14765 "/>
  <polygon class="fil1" points="6022,11302 6133,11302 6133,10954 6022,10954 "/>
  <polygon class="fil1" points="6041,10987 6114,10987 6114,10639 6041,10639 "/>
  <polygon class="fil1" points="6051,10696 6104,10696 6104,10348 6051,10348 "/>
  <path class="fil2" d="M6236 11384l-304 0 0 3c-586,689 -1901,1264 -1025,2233l-53 0 0 190 2462 0 0 -190 -53 0c877,-971 -443,-1547 -1027,-2237z"/>
  <path class="fil3" d="M4854 13810l0 -190 53 0 0 0c-208,-230 -292,-438 -293,-630 -1,-618 870,-1078 1317,-1603l0 -3 152 0 -107 0 0 3c-413,689 -1340,1264 -723,2233l-400 0 0 190zm1230 -238l-343 0c-85,-309 -104,-604 -57,-901 43,-276 138,-529 229,-774 56,-151 114,-306 160,-466l12 0 0 2141zm-392 0l-411 0c-100,-162 -158,-315 -178,-468 -18,-142 -3,-281 46,-425 94,-273 299,-525 498,-769 126,-155 256,-314 358,-479l17 0c-191,658 -581,1221 -331,2141z"/>
  <polygon class="fil13" points="4935,14340 7259,14340 7259,13810 4935,13810 "/>
  <polygon class="fil4" points="4854,13810 7316,13810 7316,13621 4854,13621 "/>
  <path class="fil11" d="M5260 14060c3,-62 -85,-105 -112,-160 -27,54 -115,98 -112,160l0 0 0 280 225 0 0 -280 0 0z"/>
  <path class="fil14" d="M5102 13957l0 0c14,-14 28,-28 38,-42 -10,14 -24,28 -38,42zm38 -42c0,0 0,0 0,0 0,0 0,0 0,0zm0 -1c0,0 0,0 0,0 0,0 0,0 0,0zm8 -13c0,0 0,0 0,0 0,0 0,0 0,0zm0 0c0,0 0,0 0,0 0,0 0,0 0,0z"/>
  <path class="fil12" d="M5260 14331l-69 0 0 -247 0 0c2,-49 -53,-87 -89,-127 14,-14 28,-28 38,-42 0,0 0,0 0,0 0,0 0,0 0,0 0,0 0,0 0,0 0,0 0,0 0,0 3,-4 5,-8 8,-13 0,0 0,0 0,0 0,0 0,0 0,0 0,0 0,0 0,0l0 0c27,53 112,96 112,157 0,1 0,2 0,3l0 0 0 270z"/>
  <path class="fil11" d="M5576 14060c3,-62 -85,-105 -112,-160 -27,54 -115,98 -112,160l0 0 0 280 225 0 0 -280 0 0z"/>
  <path class="fil11" d="M5893 14060c3,-62 -85,-105 -112,-160 -27,54 -115,98 -112,160l0 0 0 280 225 0 0 -280 0 0z"/>
  <path class="fil11" d="M6209 14060c3,-62 -85,-105 -112,-160 -27,54 -115,98 -112,160l0 0 0 280 225 0 0 -280 0 0z"/>
  <path class="fil11" d="M6525 14060c3,-62 -85,-105 -112,-160 -27,54 -115,98 -112,160l0 0 0 280 225 0 0 -280 0 0z"/>
  <path class="fil11" d="M6841 14060c3,-62 -85,-105 -112,-160 -27,54 -115,98 -112,160l0 0 0 280 225 0 0 -280 0 0z"/>
  <path class="fil11" d="M7157 14060c3,-62 -85,-105 -112,-160 -27,54 -115,98 -112,160l0 0 0 280 225 0 0 -280 0 0z"/>
  <path class="fil4" d="M6204 11270l-240 0c-18,0 -32,14 -32,32l0 82 305 0 0 -82c0,-18 -15,-32 -32,-32z"/>
  <polygon class="fil5" points="6051,10420 6104,10420 6104,10365 6051,10365 "/>
  <polygon class="fil5" points="6041,10770 6114,10770 6114,10715 6041,10715 "/>
  <polygon class="fil5" points="6022,11170 6133,11170 6133,11115 6022,11115 "/>
  <path class="fil4" d="M6241 10287c-160,0 -290,-130 -290,-290 0,-41 9,-80 24,-116 -73,53 -120,138 -120,235 0,160 130,290 290,290 119,0 221,-72 266,-174 -48,35 -106,55 -170,55z"/>
  <path class="fil4" d="M6202 10618c0,69 -56,125 -125,125 -69,0 -125,-56 -125,-125 0,-69 56,-124 125,-124 69,0 125,56 125,124z"/>
  <path class="fil4" d="M6230 10987c0,84 -68,153 -153,153 -84,0 -153,-68 -153,-153 0,-84 68,-153 153,-153 84,0 153,68 153,153z"/>
  <path class="fil3" d="M6916 13621l-831 0 0 -48 345 0c85,-309 104,-604 57,-901 -43,-276 -138,-529 -229,-774 -56,-151 -114,-306 -160,-466l-13 0 0 -48 107 0c412,690 1343,1266 724,2237zm-769 -2189c191,658 581,1221 331,2141l411 0c100,-162 158,-315 178,-468 18,-142 3,-281 -46,-425 -94,-273 -299,-525 -498,-769 -126,-155 -256,-314 -358,-479l-17 0z"/>
  <path class="fil6" d="M6084 13621l-830 0c-618,-969 309,-1545 723,-2233l0 -3 107 0 0 48 -12 0c-46,160 -104,315 -160,466 -91,245 -186,498 -229,774 -47,298 -28,593 57,901l343 0 0 48zm-78 -2189c-101,165 -232,324 -358,479 -199,244 -405,496 -498,769 -49,144 -65,283 -46,425 20,153 78,307 178,468l411 0c-249,-920 140,-1483 331,-2141l-17 0z"/>
  <polygon class="fil7" points="6916,13621 5255,13621 6916,13621 "/>
  <path class="fil14" d="M5418 13957l0 0c12,-12 23,-23 33,-35 -9,12 -21,23 -33,35zm46 -56c0,0 0,0 0,0 0,0 0,0 0,0z"/>
  <path class="fil12" d="M5576 14331l-69 0 0 -247 0 0c2,-49 -53,-87 -89,-127 12,-12 23,-23 33,-35 5,-7 10,-13 13,-20 0,0 0,0 0,0l0 0c27,53 112,96 112,157 0,1 0,2 0,3l0 0 0 270z"/>
  <path class="fil14" d="M5734 13957l0 0c10,-10 19,-19 28,-29 -8,10 -18,19 -28,29zm28 -29c0,0 0,0 0,0 0,0 0,0 0,0zm18 -26c0,0 0,0 0,0 0,0 0,0 0,0z"/>
  <path class="fil12" d="M5893 14331l-69 0 0 -247 0 0c2,-49 -53,-87 -89,-127 10,-10 19,-19 28,-29 0,0 0,0 0,0 0,0 0,0 0,0 7,-8 13,-17 18,-26 0,0 0,0 0,0l0 0c27,53 112,96 112,157 0,1 0,2 0,3l0 0 0 270z"/>
  <path class="fil14" d="M6050 13957l0 0c15,-15 30,-30 41,-46 -10,16 -25,31 -41,46zm41 -46c0,0 0,0 0,0 0,0 0,0 0,0zm0 0c0,0 0,0 0,0 0,0 0,0 0,0zm0 -1c0,0 0,0 0,0 0,0 0,0 0,0zm0 -1c0,0 0,0 0,0 0,0 0,0 0,0zm0 0c0,0 0,0 0,0 0,0 0,0 0,0zm0 -1c0,0 0,0 0,0 0,0 0,0 0,0zm0 0c0,0 0,0 0,0 0,0 0,0 0,0zm1 -1c0,0 0,0 0,0 0,0 0,0 0,0zm1 -1l0 0 0 0zm1 -1l0 0 0 0zm0 -1c0,0 0,0 0,0 0,0 0,0 0,0zm0 -1c0,0 0,0 0,0 0,0 0,0 0,0zm0 0c0,0 0,0 0,0 0,0 0,0 0,0zm0 -1c0,0 0,0 0,0 0,0 0,0 0,0zm0 0c0,0 0,0 0,0 0,0 0,0 0,0z"/>
  <path class="fil12" d="M6209 14331l-69 0 0 -247 0 0c2,-49 -53,-87 -89,-127 15,-15 30,-30 41,-46l0 0c0,0 0,0 0,0 0,0 0,0 0,0 0,0 0,0 0,0 0,0 0,0 0,0 0,0 0,0 0,0 0,0 0,0 0,0 0,0 0,0 0,0 0,0 0,0 0,0 0,0 0,0 0,0 0,0 0,0 0,0 0,0 0,0 0,0 0,0 0,0 0,0 0,0 0,0 0,0 0,0 0,-1 1,-1 0,0 0,0 0,0 0,0 0,-1 1,-1l0 0c0,0 0,-1 1,-1l0 0c0,0 0,-1 0,-1 0,0 0,0 0,0 0,0 0,-1 0,-1 0,0 0,0 0,0 0,0 0,0 0,0 0,0 0,0 0,0 0,0 0,0 0,0 0,0 0,0 0,0 0,0 0,0 0,0 0,0 0,0 0,0l0 0c27,53 112,96 112,157 0,1 0,2 0,3l0 0 0 270z"/>
  <path class="fil14" d="M6366 13957l0 0c18,-18 35,-35 45,-55 -10,19 -27,37 -45,55zm45 -55c0,0 0,0 0,0 0,0 0,0 0,0zm0 0c0,0 0,0 0,0 0,0 0,0 0,0zm0 -1c0,0 0,0 0,0 0,0 0,0 0,0z"/>
  <path class="fil12" d="M6525 14331l-69 0 0 -247 0 0c2,-49 -53,-87 -89,-127 18,-18 35,-35 45,-55l0 0c0,0 0,0 0,0 0,0 0,0 0,0 0,0 0,0 0,0 0,0 0,0 0,0 0,0 0,0 0,0l0 0c27,53 112,96 112,157 0,1 0,2 0,3l0 0 0 270z"/>
  <path class="fil14" d="M6683 13957c0,0 0,0 0,0 13,-13 26,-26 36,-40 -10,14 -23,27 -36,40zm36 -40c0,0 0,0 0,0 0,0 0,0 0,0zm10 -15c0,0 0,0 0,0 0,0 0,0 0,0z"/>
  <path class="fil12" d="M6841 14331l-69 0 0 -247 0 0c2,-49 -53,-87 -89,-127 13,-13 26,-26 36,-40 0,0 0,0 0,0 0,0 0,0 0,0 4,-5 7,-10 9,-15 0,0 0,0 0,0l0 0c27,53 112,96 112,157 0,1 0,2 0,3l0 0 0 270z"/>
  <path class="fil14" d="M6999 13957c0,0 0,0 0,0 10,-10 19,-19 28,-29 -8,10 -18,19 -28,29zm28 -29c0,0 0,0 0,0 0,0 0,0 0,0zm18 -26c0,0 0,0 0,0 0,0 0,0 0,0z"/>
  <path class="fil12" d="M7157 14331l-69 0 0 -247 0 0c2,-49 -53,-87 -89,-127 10,-10 19,-19 28,-29 0,0 0,0 0,0 0,0 0,0 0,0 7,-8 13,-17 18,-26 0,0 0,0 0,0l0 0c27,53 112,96 112,157 0,1 0,2 0,3l0 0 0 270z"/>
  <polygon class="fil15" points="4911,13845 4935,13845 4935,13810 4911,13810 "/>
  <polygon class="fil14" points="4935,13845 7235,13845 7235,13810 4935,13810 "/>
  <polygon class="fil13" points="3737,17261 8402,17261 8402,14499 3737,14499 "/>
  <polygon class="fil4" points="3661,14765 8402,14765 8402,14631 3661,14631 "/>
  <polygon class="fil14" points="8321,14811 3737,14811 3737,14765 8324,14765 "/>
  <polygon class="fil9" points="3737,17261 8385,17261 8385,16944 3737,16944 "/>
  <path class="fil11" d="M7481 17261l606 0 0 -1851c0,-139 -113,-252 -252,-252l-101 0c-139,0 -252,113 -252,252l0 1851z"/>
  <path class="fil4" d="M7784 15067c217,0 394,177 394,394l0 1801 -91 0 0 -1801c0,-167 -136,-303 -303,-303 -167,0 -303,136 -303,303l0 1801 -91 0 0 -1801c0,-217 177,-394 394,-394z"/>
  <path class="fil12" d="M7694 17261l-213 0 0 -1801c0,-167 136,-303 303,-303 0,0 1,0 1,0 0,0 0,0 0,0 0,0 0,0 1,0 0,0 0,0 0,0 0,0 0,0 1,0 0,0 0,0 0,0 0,0 0,0 1,0 0,0 0,0 0,0 0,0 0,0 1,0 0,0 0,0 0,0 0,0 0,0 1,0 0,0 0,0 0,0 0,0 0,0 1,0 0,0 0,0 0,0 0,0 0,0 1,0 0,0 0,0 0,0 0,0 0,0 1,0 0,0 0,0 0,0 0,0 0,0 1,0 0,0 0,0 0,0 0,0 0,0 1,0 0,0 0,0 0,0 0,0 1,0 1,0 0,0 0,0 0,0 2,0 3,0 5,0 0,0 0,0 0,0 0,0 1,0 1,0 0,0 0,0 0,0 0,0 1,0 1,0 0,0 0,0 0,0 0,0 1,0 1,0 0,0 0,0 0,0 0,0 1,0 1,0 0,0 0,0 0,0 0,0 1,0 1,0l0 0c80,6 152,43 203,100 -4,0 -8,0 -12,0l0 0c-167,0 -303,136 -303,303l0 1700z"/>
  <path class="fil7" d="M7806 15159l0 0zm-1 0c0,0 0,0 0,0 0,0 0,0 0,0zm-1 0c0,0 0,0 0,0 0,0 0,0 0,0zm-1 0c0,0 0,0 0,0 0,0 0,0 0,0zm-1 0c0,0 0,0 0,0 0,0 0,0 0,0zm-1 0c0,0 0,0 0,0 0,0 0,0 0,0zm-5 0c0,0 0,0 0,0 0,0 0,0 0,0zm-1 0c0,0 0,0 0,0 0,0 0,0 0,0zm-1 0c0,0 0,0 0,0 0,0 0,0 0,0zm-1 0c0,0 0,0 0,0 0,0 0,0 0,0zm-1 0c0,0 0,0 0,0 0,0 0,0 0,0zm-1 0c0,0 0,0 0,0 0,0 0,0 0,0zm-1 0c0,0 0,0 0,0 0,0 0,0 0,0zm-1 0c0,0 0,0 0,0 0,0 0,0 0,0zm-1 0c0,0 0,0 0,0 0,0 0,0 0,0zm-1 0c0,0 0,0 0,0 0,0 0,0 0,0zm-1 0c0,0 0,0 0,0 0,0 0,0 0,0zm-1 0c0,0 0,0 0,0 0,0 0,0 0,0z"/>
  <path class="fil11" d="M6381 17261l605 0 0 -1851c0,-139 -113,-252 -252,-252l-101 0c-139,0 -252,113 -252,252l0 1851z"/>
  <path class="fil4" d="M6683 15067c217,0 394,177 394,394l0 1801 -91 0 0 -1801c0,-167 -136,-303 -303,-303 -167,0 -303,136 -303,303l0 1349 0 0 0 451 -91 0 0 -1801c0,-217 177,-394 394,-394z"/>
  <path class="fil12" d="M6594 17261l-213 0 0 -451 0 0 0 -1349c0,-166 134,-301 300,-303 1,0 2,0 3,0 0,0 1,0 1,0 0,0 0,0 0,0 0,0 0,0 1,0 0,0 0,0 0,0 0,0 0,0 1,0 0,0 0,0 0,0 0,0 0,0 1,0 0,0 0,0 0,0 0,0 0,0 1,0 0,0 0,0 0,0 0,0 0,0 1,0 0,0 0,0 0,0 0,0 0,0 1,0 0,0 0,0 0,0 0,0 0,0 1,0 0,0 0,0 0,0 0,0 0,0 1,0 0,0 0,0 0,0 0,0 1,0 1,0 0,0 0,0 0,0 0,0 1,0 1,0 0,0 0,0 0,0 0,0 1,0 1,0 0,0 0,0 0,0 85,3 160,42 213,101 -4,0 -8,0 -12,0 -167,0 -303,136 -303,303l0 1700z"/>
  <path class="fil7" d="M6381 16810l0 0 0 -1349c0,-166 134,-301 300,-303 -166,2 -300,137 -300,303l0 1349zm315 -1652c0,0 0,0 0,0 0,0 0,0 0,0zm-1 0c0,0 0,0 0,0 0,0 0,0 0,0zm-1 0c0,0 0,0 0,0 0,0 0,0 0,0zm-1 0c0,0 0,0 0,0 0,0 0,0 0,0zm-1 0c0,0 0,0 0,0 0,0 0,0 0,0zm-1 0c0,0 0,0 0,0 0,0 0,0 0,0zm-1 0c0,0 0,0 0,0 0,0 0,0 0,0zm-1 0c0,0 0,0 0,0 0,0 0,0 0,0zm-1 0c0,0 0,0 0,0 0,0 0,0 0,0zm-1 0c0,0 0,0 0,0 0,0 0,0 0,0zm-1 0c0,0 0,0 0,0 0,0 0,0 0,0zm-1 0c0,0 0,0 0,0 0,0 0,0 0,0z"/>
  <path class="fil11" d="M5281 17261l606 0 0 -1851c0,-139 -113,-252 -252,-252l-101 0c-139,0 -252,113 -252,252l0 1851z"/>
  <path class="fil4" d="M5583 15067c217,0 394,177 394,394l0 1801 -91 0 0 -1801c0,-167 -136,-303 -303,-303 -167,0 -303,136 -303,303l0 1801 -91 0 0 -1801c0,-217 177,-394 394,-394z"/>
  <path class="fil12" d="M5494 17261l-213 0 0 -1801c0,-167 136,-303 303,-303 0,0 1,0 1,0 0,0 0,0 0,0 0,0 0,0 1,0 0,0 0,0 0,0 0,0 0,0 1,0 0,0 0,0 0,0 0,0 0,0 1,0 0,0 0,0 0,0 0,0 0,0 1,0 0,0 0,0 0,0 0,0 0,0 1,0 0,0 0,0 0,0 0,0 0,0 1,0 0,0 0,0 0,0 0,0 0,0 1,0 0,0 0,0 0,0 0,0 0,0 1,0 0,0 0,0 0,0 0,0 0,0 1,0 0,0 0,0 0,0 0,0 0,0 1,0 0,0 0,0 0,0 0,0 0,0 1,0 0,0 0,0 0,0 0,0 1,0 1,0 0,0 0,0 0,0 1,0 1,0 2,0 0,0 0,0 0,0 0,0 1,0 1,0 0,0 0,0 0,0 0,0 1,0 1,0 0,0 0,0 0,0 0,0 1,0 1,0 0,0 0,0 0,0 0,0 1,0 1,0 0,0 0,0 0,0 0,0 1,0 1,0 0,0 0,0 0,0 0,0 1,0 1,0 0,0 0,0 0,0 0,0 1,0 1,0 0,0 0,0 0,0 0,0 1,0 1,0 0,0 0,0 0,0 80,6 151,44 202,100 -4,0 -8,0 -12,0 -167,0 -303,136 -303,303l0 1700z"/>
  <path class="fil7" d="M5607 15159c0,0 0,0 0,0 0,0 0,0 0,0zm-1 0c0,0 0,0 0,0 0,0 0,0 0,0zm-1 0c0,0 0,0 0,0 0,0 0,0 0,0zm-1 0c0,0 0,0 0,0 0,0 0,0 0,0zm-1 0c0,0 0,0 0,0 0,0 0,0 0,0zm-1 0c0,0 0,0 0,0 0,0 0,0 0,0zm-1 0c0,0 0,0 0,0 0,0 0,0 0,0zm-1 0c0,0 0,0 0,0 0,0 0,0 0,0zm-1 0c0,0 0,0 0,0 0,0 0,0 0,0zm-2 0c0,0 0,0 0,0 0,0 0,0 0,0zm-1 0c0,0 0,0 0,0 0,0 0,0 0,0zm-1 0c0,0 0,0 0,0 0,0 0,0 0,0zm-1 0c0,0 0,0 0,0 0,0 0,0 0,0zm-1 0c0,0 0,0 0,0 0,0 0,0 0,0zm-1 0c0,0 0,0 0,0 0,0 0,0 0,0zm-1 0c0,0 0,0 0,0 0,0 0,0 0,0zm-1 0c0,0 0,0 0,0 0,0 0,0 0,0zm-1 0c0,0 0,0 0,0 0,0 0,0 0,0zm-1 0c0,0 0,0 0,0 0,0 0,0 0,0zm-1 0c0,0 0,0 0,0 0,0 0,0 0,0zm-1 0c0,0 0,0 0,0 0,0 0,0 0,0zm-1 0c0,0 0,0 0,0 0,0 0,0 0,0z"/>
  <path class="fil11" d="M4180 17261l606 0 0 -1851c0,-139 -113,-252 -252,-252l-101 0c-139,0 -252,113 -252,252l0 1851z"/>
  <path class="fil4" d="M4483 15067c217,0 394,177 394,394l0 1801 -91 0 0 -1801c0,-167 -136,-303 -303,-303 -167,0 -303,136 -303,303l0 1801 -91 0 0 -1801c0,-217 177,-394 394,-394z"/>
  <path class="fil12" d="M4393 17261l-213 0 0 -1801c0,-167 136,-303 303,-303 0,0 1,0 1,0 0,0 0,0 0,0 0,0 0,0 1,0 0,0 0,0 0,0 0,0 0,0 1,0 0,0 0,0 0,0 0,0 0,0 1,0 0,0 0,0 0,0 0,0 0,0 1,0 0,0 0,0 0,0 0,0 0,0 1,0 0,0 0,0 0,0 0,0 0,0 1,0 0,0 0,0 0,0 0,0 0,0 1,0 0,0 0,0 0,0 0,0 0,0 1,0 0,0 0,0 0,0 0,0 0,0 1,0 0,0 0,0 0,0 0,0 0,0 1,0 0,0 0,0 0,0 0,0 1,0 1,0 0,0 0,0 0,0 2,0 3,0 5,0 0,0 0,0 0,0 0,0 1,0 1,0 0,0 0,0 0,0 0,0 1,0 1,0 0,0 0,0 0,0 0,0 1,0 1,0 0,0 0,0 0,0 0,0 1,0 1,0 0,0 0,0 0,0 0,0 1,0 1,0 0,0 0,0 0,0 80,6 152,43 203,100 -4,0 -8,0 -12,0l0 0c-167,0 -303,136 -303,303l0 1700z"/>
  <path class="fil7" d="M4506 15159c0,0 0,0 0,0l0 0zm-1 0c0,0 0,0 0,0 0,0 0,0 0,0zm-1 0c0,0 0,0 0,0 0,0 0,0 0,0zm-1 0c0,0 0,0 0,0 0,0 0,0 0,0zm-1 0c0,0 0,0 0,0 0,0 0,0 0,0zm-1 0c0,0 0,0 0,0 0,0 0,0 0,0zm-5 0c0,0 0,0 0,0 0,0 0,0 0,0zm-1 0c0,0 0,0 0,0 0,0 0,0 0,0zm-1 0c0,0 0,0 0,0 0,0 0,0 0,0zm-1 0c0,0 0,0 0,0 0,0 0,0 0,0zm-1 0c0,0 0,0 0,0 0,0 0,0 0,0zm-1 0c0,0 0,0 0,0 0,0 0,0 0,0zm-1 0c0,0 0,0 0,0 0,0 0,0 0,0zm-1 0c0,0 0,0 0,0 0,0 0,0 0,0zm-1 0c0,0 0,0 0,0 0,0 0,0 0,0zm-1 0c0,0 0,0 0,0 0,0 0,0 0,0zm-1 0c0,0 0,0 0,0 0,0 0,0 0,0zm-1 0c0,0 0,0 0,0 0,0 0,0 0,0z"/>
  <polygon class="fil9" points="3706,14499 8402,14499 8402,14415 3706,14415 "/>
  <polygon class="fil9" points="3677,14415 8402,14415 8402,14331 3677,14331 "/>
  <polygon class="fil16" points="8342,14446 3706,14446 3706,14415 8344,14415 "/>
  <polygon class="fil14" points="8337,14530 3737,14530 3737,14499 8339,14499 "/>
  <path class="fil14" d="M8385 16944l-189 0 125 -2133 81 0 0 256 -52 0 0 124 52 0 0 1478 -52 0 0 124 52 0 -17 0 0 43 0 0 0 108zm17 -2312l-70 0 6 -101 64 0 0 101z"/>
  <polygon class="fil7" points="8401,14765 8324,14765 8331,14631 8401,14631 "/>
  <polygon class="fil17" points="8401,14811 8321,14811 8324,14765 8401,14765 "/>
  <polygon class="fil16" points="8385,17261 8177,17261 8196,16944 8385,16944 "/>
  <polygon class="fil16" points="8401,14499 8339,14499 8342,14446 8401,14446 "/>
  <polygon class="fil16" points="8401,14415 8344,14415 8349,14331 8401,14331 "/>
  <polygon class="fil18" points="8401,14446 8342,14446 8344,14415 8401,14415 "/>
  <polygon class="fil17" points="8401,14530 8337,14530 8339,14499 8401,14499 "/>
  <polygon class="fil0" points="16891,17261 17977,17261 17977,7051 16891,7051 "/>
  <polygon class="fil1" points="17401,5557 17453,5557 17453,5395 17401,5395 "/>
  <polygon class="fil1" points="17410,5410 17444,5410 17444,5248 17410,5248 "/>
  <polygon class="fil1" points="17415,5274 17439,5274 17439,5112 17415,5112 "/>
  <path class="fil2" d="M17500 5595l-141 0 0 1c-273,321 -885,589 -477,1040l-25 0 0 88 1146 0 0 -88 -25 0c409,-452 -206,-720 -478,-1041z"/>
  <path class="fil3" d="M16857 6725l0 -88 25 0 0 0c-97,-107 -136,-204 -136,-293 0,-288 405,-502 613,-747l0 -1 71 0 -50 0 0 1c-192,321 -624,589 -336,1040l-186 0 0 88zm573 -111l-160 0c-40,-144 -48,-281 -27,-420 20,-129 64,-247 107,-361 26,-70 53,-142 74,-217l5 0 0 997zm-183 0l-191 0c-46,-75 -73,-147 -83,-218 -8,-66 -1,-131 22,-198 44,-127 139,-245 232,-358 59,-72 119,-146 167,-223l8 0c-89,306 -271,569 -154,997z"/>
  <polygon class="fil0" points="16895,6971 17977,6971 17977,6725 16895,6725 "/>
  <polygon class="fil4" points="16857,6725 18004,6725 18004,6636 16857,6636 "/>
  <path class="fil4" d="M17468 5541l-77 0c-18,0 -32,14 -32,33l0 21 142 0 0 -21c0,-18 -15,-33 -33,-33z"/>
  <polygon class="fil5" points="17415,5146 17439,5146 17439,5120 17415,5120 "/>
  <polygon class="fil5" points="17410,5309 17444,5309 17444,5283 17410,5283 "/>
  <polygon class="fil5" points="17401,5495 17453,5495 17453,5469 17401,5469 "/>
  <path class="fil4" d="M17503 5084c-75,0 -135,-60 -135,-135 0,-19 4,-37 11,-54 -34,24 -56,64 -56,109 0,75 60,135 135,135 55,0 103,-33 124,-81 -22,16 -49,26 -79,26z"/>
  <path class="fil4" d="M17485 5238c0,32 -26,58 -58,58 -32,0 -58,-26 -58,-58 0,-32 26,-58 58,-58 32,0 58,26 58,58z"/>
  <path class="fil4" d="M17498 5410c0,39 -32,71 -71,71 -39,0 -71,-32 -71,-71 0,-39 32,-71 71,-71 39,0 71,32 71,71z"/>
  <path class="fil3" d="M17817 6636l-387 0 0 -22 160 0c40,-144 48,-281 27,-420 -20,-129 -64,-247 -107,-361 -26,-70 -53,-142 -74,-217l-6 0 0 -22 50 0c192,321 626,589 337,1041zm-358 -1019c89,306 271,569 154,997l191 0c46,-75 73,-147 83,-218 8,-66 1,-131 -22,-198 -44,-127 -139,-245 -232,-358 -59,-72 -119,-146 -167,-223l-8 0z"/>
  <path class="fil6" d="M17430 6636l-386 0c-288,-451 144,-719 336,-1040l0 -1 50 0 0 22 -5 0c-21,74 -48,147 -74,217 -43,114 -87,232 -107,361 -22,139 -13,276 27,420l160 0 0 22zm-36 -1019c-47,77 -108,151 -167,223 -93,113 -188,231 -232,358 -23,67 -30,132 -22,198 9,71 36,143 83,218l191 0c-116,-428 65,-691 154,-997l-8 0z"/>
  <polygon class="fil7" points="17817,6636 17043,6636 17817,6636 "/>
  <polygon class="fil8" points="16895,6741 17977,6741 17977,6725 16895,6725 "/>
  <polygon class="fil9" points="18092,11977 16776,11977 16891,12268 17977,12268 "/>
  <polygon class="fil9" points="16776,11977 18092,11977 18092,11568 16776,11568 "/>
  <path class="fil10" d="M18053 11861l-107 0 0 -258 107 0 0 258zm-141 0l-107 0 0 -258 107 0 0 258zm-141 0l-107 0 0 -258 107 0 0 258zm-141 0l-107 0 0 -258 107 0 0 258zm-142 0l-106 0 0 -258 106 0 0 258zm-141 0l-107 0 0 -258 107 0 0 258zm-141 0l-107 0 0 -258 107 0 0 258zm-142 0l-107 0 0 -258 107 0 0 258zm-141 0l-107 0 0 -258 107 0 0 258zm-146 -293l0 408 1317 0 0 -408 -1317 0z"/>
  <path class="fil9" d="M16859 11434c-46,37 -44,92 -44,92l0 43 44 0 44 0 0 -43c0,0 2,-54 -44,-92z"/>
  <path class="fil9" d="M16974 11434c-46,37 -44,92 -44,92l0 43 44 0 44 0 0 -43c0,0 2,-54 -44,-92z"/>
  <path class="fil9" d="M17089 11434c-46,37 -44,92 -44,92l0 43 44 0 44 0 0 -43c0,0 2,-54 -44,-92z"/>
  <path class="fil9" d="M17204 11434c-46,37 -44,92 -44,92l0 43 44 0 44 0 0 -43c0,0 2,-54 -44,-92z"/>
  <path class="fil9" d="M17319 11434c-46,37 -44,92 -44,92l0 43 44 0 44 0 0 -43c0,0 2,-54 -44,-92z"/>
  <path class="fil9" d="M17434 11434c-46,37 -44,92 -44,92l0 43 44 0 44 0 0 -43c0,0 2,-54 -44,-92z"/>
  <path class="fil9" d="M17549 11434c-46,37 -44,92 -44,92l0 43 44 0 44 0 0 -43c0,0 2,-54 -44,-92z"/>
  <path class="fil9" d="M17664 11434c-46,37 -44,92 -44,92l0 43 44 0 44 0 0 -43c0,0 2,-54 -44,-92z"/>
  <path class="fil9" d="M17779 11434c-46,37 -44,92 -44,92l0 43 44 0 44 0 0 -43c0,0 2,-54 -44,-92z"/>
  <path class="fil9" d="M17894 11434c-46,37 -44,92 -44,92l0 43 44 0 44 0 0 -43c0,0 2,-54 -44,-92z"/>
  <path class="fil9" d="M18009 11434c-46,37 -44,92 -44,92l0 43 44 0 44 0 0 -43c0,0 2,-54 -44,-92z"/>
  <polygon class="fil9" points="18092,9154 16776,9154 16891,9445 17977,9445 "/>
  <polygon class="fil9" points="16776,9154 18092,9154 18092,8746 16776,8746 "/>
  <path class="fil10" d="M18053 9039l-107 0 0 -257 107 0 0 257zm-141 0l-107 0 0 -257 107 0 0 257zm-141 0l-107 0 0 -257 107 0 0 257zm-141 0l-107 0 0 -257 107 0 0 257zm-142 0l-106 0 0 -257 106 0 0 257zm-141 0l-107 0 0 -257 107 0 0 257zm-141 0l-107 0 0 -257 107 0 0 257zm-142 0l-107 0 0 -257 107 0 0 257zm-141 0l-107 0 0 -257 107 0 0 257zm-146 -293l0 408 1317 0 0 -408 -1317 0z"/>
  <path class="fil9" d="M16859 8611c-46,37 -44,92 -44,92l0 43 44 0 44 0 0 -43c0,0 2,-54 -44,-92z"/>
  <path class="fil9" d="M16974 8611c-46,37 -44,92 -44,92l0 43 44 0 44 0 0 -43c0,0 2,-54 -44,-92z"/>
  <path class="fil9" d="M17089 8611c-46,37 -44,92 -44,92l0 43 44 0 44 0 0 -43c0,0 2,-54 -44,-92z"/>
  <path class="fil9" d="M17204 8611c-46,37 -44,92 -44,92l0 43 44 0 44 0 0 -43c0,0 2,-54 -44,-92z"/>
  <path class="fil9" d="M17319 8611c-46,37 -44,92 -44,92l0 43 44 0 44 0 0 -43c0,0 2,-54 -44,-92z"/>
  <path class="fil9" d="M17434 8611c-46,37 -44,92 -44,92l0 43 44 0 44 0 0 -43c0,0 2,-54 -44,-92z"/>
  <path class="fil9" d="M17549 8611c-46,37 -44,92 -44,92l0 43 44 0 44 0 0 -43c0,0 2,-54 -44,-92z"/>
  <path class="fil9" d="M17664 8611c-46,37 -44,92 -44,92l0 43 44 0 44 0 0 -43c0,0 2,-54 -44,-92z"/>
  <path class="fil9" d="M17779 8611c-46,37 -44,92 -44,92l0 43 44 0 44 0 0 -43c0,0 2,-54 -44,-92z"/>
  <path class="fil9" d="M17894 8611c-46,37 -44,92 -44,92l0 43 44 0 44 0 0 -43c0,0 2,-54 -44,-92z"/>
  <path class="fil9" d="M18009 8611c-46,37 -44,92 -44,92l0 43 44 0 44 0 0 -43c0,0 2,-54 -44,-92z"/>
  <polygon class="fil4" points="16843,7051 18025,7051 18025,6950 16843,6950 "/>
  <polygon class="fil8" points="16891,7090 17977,7090 17977,7051 16891,7051 "/>
  <path class="fil11" d="M17613 8169l-340 0 0 -503c0,-91 74,-165 165,-165l10 0c91,0 165,74 165,165l0 503z"/>
  <path class="fil12" d="M17613 8169l-112 0 0 -450c0,-92 -74,-167 -167,-167l-7 0c-3,0 -6,0 -8,0 30,-32 73,-51 120,-51l7 0c92,0 166,75 166,166l0 501z"/>
  <path class="fil10" d="M17613 8169l-340 0 0 -498c0,-94 76,-170 170,-170 94,0 170,76 170,170l0 498zm-170 -719c-122,0 -221,99 -221,221l0 549 442 0 0 -549c0,-122 -99,-221 -221,-221z"/>
  <path class="fil11" d="M17613 10727l-340 0 0 -503c0,-91 74,-165 165,-165l10 0c91,0 165,74 165,165l0 503z"/>
  <path class="fil12" d="M17613 10727l-112 0 0 -450c0,-92 -74,-166 -167,-166l-7 0c-3,0 -6,0 -8,0 30,-32 73,-51 120,-51l7 0c92,0 166,75 166,167l0 501z"/>
  <path class="fil10" d="M17613 10727l-340 0 0 -498c0,-94 76,-170 170,-170 94,0 170,76 170,170l0 498zm-170 -719c-122,0 -221,99 -221,221l0 549 442 0 0 -549c0,-122 -99,-221 -221,-221z"/>
  <polygon class="fil1" points="10548,8754 10723,8754 10723,8204 10548,8204 "/>
  <polygon class="fil1" points="10578,8255 10694,8255 10694,7704 10578,7704 "/>
  <polygon class="fil1" points="10594,7794 10677,7794 10677,7244 10594,7244 "/>
  <path class="fil2" d="M10886 8884l-481 0 0 5c-928,1090 -3008,2000 -1622,3534l-84 0 0 300 3895 0 0 -300 -84 0c1388,-1536 -700,-2447 -1626,-3539z"/>
  <path class="fil3" d="M8700 12723l0 -300 84 0 0 0c-329,-364 -463,-693 -463,-998 0,-978 1377,-1705 2084,-2536l0 -5 241 0 -170 0 0 5c-654,1090 -2121,2000 -1143,3534l-634 0 0 300zm1946 -376l-543 0c-135,-488 -165,-956 -91,-1426 68,-437 218,-838 363,-1225 89,-238 181,-484 253,-737l18 0 0 3388zm-621 0l-650 0c-158,-256 -250,-499 -281,-741 -29,-224 -5,-444 73,-672 148,-432 473,-831 788,-1216 200,-245 406,-497 566,-758l27 0c-302,1041 -919,1933 -524,3388z"/>
  <polygon class="fil13" points="8828,13561 12505,13561 12505,12723 8828,12723 "/>
  <polygon class="fil4" points="8700,12723 12595,12723 12595,12423 8700,12423 "/>
  <path class="fil11" d="M9343 13118c4,-98 -134,-167 -178,-252 -43,86 -182,154 -178,252l0 0 0 443 356 0 0 -443 0 0z"/>
  <path class="fil14" d="M9079 12967l0 0c5,-5 9,-9 14,-14 -5,5 -9,9 -14,14zm39 -39c0,0 0,0 0,0 0,0 0,0 0,0zm0 0c0,0 0,0 0,0 0,0 0,0 0,0zm0 0c0,0 0,0 0,0 0,0 0,0 0,0zm0 0c18,-20 35,-39 45,-60 -11,21 -27,41 -45,60z"/>
  <path class="fil12" d="M9343 13559l-108 0 0 -374 0 0c4,-85 -99,-147 -155,-218 5,-5 9,-9 14,-14 9,-8 17,-17 25,-25 0,0 0,0 0,0 0,0 0,0 0,0 0,0 0,0 0,0 0,0 0,0 0,0 0,0 0,0 0,0 0,0 0,0 0,0 18,-20 35,-39 45,-60 0,0 0,0 0,0 43,84 178,152 178,248 0,2 0,3 0,5l0 0 0 441z"/>
  <path class="fil11" d="M9843 13118c4,-98 -134,-167 -178,-252 -43,86 -182,154 -178,252l0 0 0 443 356 0 0 -443 0 0z"/>
  <path class="fil11" d="M10343 13118c4,-98 -134,-167 -178,-252 -43,86 -182,154 -178,252l0 0 0 443 356 0 0 -443 0 0z"/>
  <path class="fil11" d="M10843 13118c4,-98 -134,-167 -178,-252 -43,86 -182,154 -178,252l0 0 0 443 356 0 0 -443 0 0z"/>
  <path class="fil11" d="M11343 13118c4,-98 -134,-167 -178,-252 -43,86 -182,154 -178,252l0 0 0 443 356 0 0 -443 0 0z"/>
  <path class="fil11" d="M11844 13118c4,-98 -134,-167 -178,-252 -43,86 -182,154 -178,252l0 0 0 443 356 0 0 -443 0 0z"/>
  <path class="fil11" d="M12344 13118c4,-98 -134,-167 -178,-252 -43,86 -182,154 -178,252l0 0 0 443 356 0 0 -443 0 0z"/>
  <path class="fil4" d="M10855 8703l-417 0c-18,0 -32,15 -32,32l0 149 482 0 0 -149c0,-18 -15,-32 -32,-32z"/>
  <polygon class="fil5" points="10594,7358 10677,7358 10677,7272 10594,7272 "/>
  <polygon class="fil5" points="10578,7912 10694,7912 10694,7825 10578,7825 "/>
  <polygon class="fil5" points="10548,8545 10723,8545 10723,8458 10548,8458 "/>
  <path class="fil4" d="M10894 7149c-253,0 -459,-205 -459,-459 0,-65 14,-127 38,-183 -115,83 -190,218 -190,371 0,253 205,459 459,459 188,0 350,-113 420,-275 -76,55 -168,87 -268,87z"/>
  <path class="fil4" d="M10833 7671c0,109 -88,197 -197,197 -109,0 -197,-88 -197,-197 0,-109 88,-197 197,-197 109,0 197,88 197,197z"/>
  <path class="fil4" d="M10877 8255c0,133 -108,242 -242,242 -133,0 -242,-108 -242,-242 0,-133 108,-242 242,-242 133,0 242,108 242,242z"/>
  <path class="fil3" d="M11962 12423l-1315 0 0 -75 545 0c135,-488 165,-956 91,-1426 -68,-437 -218,-838 -363,-1225 -89,-238 -181,-484 -253,-737l-21 0 0 -75 169 0c652,1092 2125,2003 1146,3539zm-1216 -3463c302,1041 919,1933 524,3388l650 0c158,-256 250,-499 281,-741 29,-224 5,-444 -73,-672 -148,-432 -473,-831 -788,-1216 -200,-245 -406,-497 -566,-758l-27 0z"/>
  <path class="fil6" d="M10646 12423l-1313 0c-977,-1533 489,-2444 1143,-3534l0 -5 170 0 0 75 -18 0c-72,253 -164,498 -253,737 -145,387 -294,788 -363,1225 -74,471 -44,938 91,1426l543 0 0 75zm-124 -3463c-161,260 -367,513 -566,758 -315,386 -640,785 -788,1216 -78,228 -102,448 -73,672 31,243 123,486 281,741l650 0c-395,-1455 222,-2347 524,-3388l-27 0z"/>
  <polygon class="fil7" points="11962,12423 9334,12423 11962,12423 "/>
  <path class="fil12" d="M9843 13559l-108 0 0 -374 0 0c4,-85 -99,-147 -155,-218 34,-33 68,-65 86,-101 43,84 178,152 178,248 0,2 0,3 0,5l0 0 0 441z"/>
  <path class="fil14" d="M10144 12898c0,0 0,0 0,0 0,0 0,0 0,0zm0 0c0,0 0,0 0,0 0,0 0,0 0,0zm0 0c8,-10 14,-20 20,-30 -5,10 -12,20 -20,30zm20 -30c0,0 0,0 0,0 0,0 0,0 0,0zm0 -1c0,0 0,0 0,0 0,0 0,0 0,0z"/>
  <path class="fil12" d="M10343 13559l-108 0 0 -374 0 0c4,-85 -99,-147 -155,-218 23,-23 47,-45 65,-68 0,0 0,0 0,0 0,0 0,0 0,0 0,0 0,0 0,0 0,0 0,0 0,0 8,-10 14,-20 20,-30 0,0 0,0 0,0 0,0 0,0 0,0 0,0 0,0 0,0 0,0 0,0 0,0 0,0 0,0 0,0 43,84 178,152 178,248 0,2 0,3 0,5l0 0 0 441z"/>
  <path class="fil14" d="M10580 12967l0 0c5,-5 10,-10 15,-15 -5,5 -10,10 -15,15zm29 -28c0,0 0,0 0,0 0,0 0,0 0,0zm0 0c0,0 0,0 0,0 0,0 0,0 0,0zm0 0c0,0 0,0 0,0 0,0 0,0 0,0zm0 0c23,-23 43,-46 56,-71 -13,25 -33,48 -56,71z"/>
  <path class="fil12" d="M10843 13559l-108 0 0 -374 0 0c4,-85 -99,-147 -155,-218 5,-5 10,-10 15,-15 5,-4 9,-9 13,-13 0,0 0,0 0,0 0,0 0,0 0,0 0,0 0,0 0,0 0,0 0,0 0,0 0,0 0,0 0,0 0,0 0,0 0,0 23,-23 43,-46 56,-71 0,0 0,0 0,0 43,84 178,152 178,248 0,2 0,3 0,5l0 0 0 441z"/>
  <path class="fil12" d="M11344 13559l-108 0 0 -374 0 0c4,-85 -99,-147 -155,-218 34,-33 68,-65 86,-101 43,84 178,152 178,248 0,2 0,3 0,5l0 0 0 441z"/>
  <path class="fil14" d="M11580 12967l0 0c2,-2 3,-3 5,-5 -2,2 -3,3 -5,5zm36 -36c0,0 0,0 0,0 0,0 0,0 0,0zm0 0c20,-21 38,-42 49,-64 -11,22 -29,44 -49,64z"/>
  <path class="fil12" d="M11844 13559l-108 0 0 -374 0 0c4,-85 -99,-147 -155,-218 2,-2 3,-3 5,-5 11,-10 21,-21 31,-31 0,0 0,0 0,0 0,0 0,0 0,0 20,-21 38,-42 49,-64l0 0c43,84 178,152 178,248 0,2 0,3 0,5l0 0 0 441z"/>
  <path class="fil14" d="M12080 12967l0 0c5,-5 10,-10 15,-15 -5,5 -10,10 -15,15z"/>
  <path class="fil12" d="M12344 13559l-108 0 0 -374 0 0c4,-85 -99,-147 -155,-218 5,-5 10,-10 15,-15 28,-28 55,-56 70,-86 43,84 178,152 178,248 0,2 0,3 0,5l0 0 0 441z"/>
  <polygon class="fil19" points="3080,17481 18152,17481 18152,17371 3080,17371 "/>
  <polygon class="fil20" points="3159,17371 18074,17371 18074,17261 3159,17261 "/>
  <polygon class="fil21" points="8401,17261 12948,17261 12948,13728 8401,13728 "/>
  <path class="fil11" d="M8768 15042l0 2219 1027 0 0 -2219 0 0c13,-236 -388,-401 -513,-608 -125,207 -526,372 -513,608l0 0z"/>
  <path class="fil22" d="M9276 14443c0,0 0,0 0,0 0,0 0,0 0,0zm1 -1c0,0 0,0 0,0 0,0 0,0 0,0zm0 -1c0,0 0,0 0,0 0,0 0,0 0,0zm1 -1c0,0 0,0 0,0 0,0 0,0 0,0zm1 -1c0,0 0,0 0,-1 0,0 0,0 0,1zm1 -1c0,0 0,0 0,-1 0,0 0,0 0,1zm1 -1c0,0 0,0 0,-1 0,0 0,0 0,1zm1 -1c0,0 0,-1 0,-1 0,0 0,1 0,1zm1 -1c0,0 0,-1 1,-1 0,0 0,1 -1,1z"/>
  <path class="fil12" d="M9778 17261l-288 0 0 -2057 0 0c11,-206 -292,-357 -453,-530 93,-76 187,-151 239,-232 0,0 0,0 0,0 0,0 0,-1 1,-1 0,0 0,0 0,0 0,0 0,0 0,-1 0,0 0,0 0,0 0,0 0,-1 1,-1 0,0 0,0 0,0 0,0 0,0 0,-1 0,0 0,0 0,-1 0,0 0,0 0,0 0,0 0,0 0,-1 0,0 0,0 0,0 0,0 0,0 0,-1 0,0 0,0 0,0 0,0 0,-1 0,-1 0,0 0,0 0,0 0,0 0,-1 1,-1l0 0c123,203 514,366 514,597 0,4 0,7 0,11l0 0 0 25 -53 0 0 124 53 0 0 0 0 43 0 0 0 1435 -53 0 0 124 53 0 -17 0 0 43 0 0 0 425z"/>
  <path class="fil11" d="M10161 15042l0 2219 1027 0 0 -2219 0 0c13,-236 -388,-401 -513,-608 -125,207 -526,372 -513,608l0 0z"/>
  <path class="fil11" d="M11555 15042l0 2219 1027 0 0 -2219 0 0c13,-236 -388,-401 -513,-608 -125,207 -526,372 -513,608l0 0z"/>
  <polygon class="fil4" points="8349,15191 8820,15191 8820,15067 8349,15067 "/>
  <polygon class="fil4" points="8349,16793 8820,16793 8820,16669 8349,16669 "/>
  <polygon class="fil10" points="8385,17261 8784,17261 8784,16793 8385,16793 "/>
  <polygon class="fil22" points="8401,15233 8768,15233 8768,15191 8401,15191 "/>
  <polygon class="fil17" points="8385,16836 8385,16836 8385,16793 8385,16793 "/>
  <polygon class="fil23" points="8385,16836 8784,16836 8784,16793 8385,16793 "/>
  <polygon class="fil4" points="9742,15191 10214,15191 10214,15067 9742,15067 "/>
  <polygon class="fil4" points="9742,16793 10214,16793 10214,16669 9742,16669 "/>
  <polygon class="fil10" points="9778,17261 10178,17261 10178,16793 9778,16793 "/>
  <polygon class="fil22" points="9795,15233 10161,15233 10161,15191 9795,15191 "/>
  <polygon class="fil24" points="9795,15233 9795,15233 9795,15191 9795,15191 "/>
  <polygon class="fil12" points="10161,15233 10161,15233 10161,15191 10161,15191 "/>
  <polygon class="fil24" points="9778,16836 9778,16836 9778,16793 9778,16793 "/>
  <polygon class="fil23" points="9778,16836 10178,16836 10178,16793 9778,16793 "/>
  <path class="fil22" d="M10468 14643c83,-68 162,-136 206,-209 -44,73 -123,141 -206,209z"/>
  <path class="fil12" d="M11171 17261l-289 0 0 -2057 0 0c11,-206 -292,-357 -453,-530 13,-10 26,-21 39,-31 83,-68 162,-136 206,-209l0 0c123,203 514,366 514,597 0,4 0,7 0,11l0 0 0 25 -52 0 0 124 52 0 0 1478 -52 0 0 124 52 0 -17 0 0 43 0 0 0 425z"/>
  <path class="fil22" d="M11827 14672c95,-77 190,-154 241,-237 -51,83 -146,160 -241,237zm241 -237c0,0 0,-1 1,-1 0,0 0,1 -1,1z"/>
  <path class="fil12" d="M12565 17261l-289 0 0 -2057 0 0c11,-206 -292,-357 -453,-530 1,-1 2,-2 3,-2 95,-77 190,-154 241,-237 0,0 0,0 0,0 0,0 0,-1 1,-1l0 0c123,203 514,366 514,597 0,4 0,7 0,11l0 0 0 25 -52 0 0 124 52 0 0 1478 -52 0 0 124 52 0 -17 0 0 43 0 0 0 425z"/>
  <polygon class="fil4" points="11136,15191 11607,15191 11607,15067 11136,15067 "/>
  <polygon class="fil4" points="11136,16793 11607,16793 11607,16669 11136,16669 "/>
  <polygon class="fil10" points="11171,17261 11571,17261 11571,16793 11171,16793 "/>
  <polygon class="fil22" points="11188,15233 11554,15233 11554,15191 11188,15191 "/>
  <polygon class="fil24" points="11171,16836 11171,16836 11171,16793 11171,16793 "/>
  <polygon class="fil23" points="11171,16836 11571,16836 11571,16793 11171,16793 "/>
  <polygon class="fil4" points="12529,15191 13001,15191 13001,15067 12529,15067 "/>
  <polygon class="fil4" points="12529,16793 13001,16793 13001,16669 12529,16669 "/>
  <polygon class="fil10" points="12565,17261 12965,17261 12965,16793 12565,16793 "/>
  <polygon class="fil22" points="12582,15233 12948,15233 12948,15191 12582,15191 "/>
  <polygon class="fil24" points="12565,16836 12565,16836 12565,16793 12565,16793 "/>
  <polygon class="fil23" points="12565,16836 12948,16836 12948,16793 12565,16793 "/>
  <polygon class="fil1" points="15202,11302 15313,11302 15313,10954 15202,10954 "/>
  <polygon class="fil1" points="15221,10987 15294,10987 15294,10639 15221,10639 "/>
  <polygon class="fil1" points="15232,10696 15284,10696 15284,10348 15232,10348 "/>
  <path class="fil2" d="M15416 11384l-304 0 0 3c-586,689 -1901,1264 -1025,2233l-53 0 0 190 2462 0 0 -190 -53 0c877,-971 -443,-1547 -1027,-2237z"/>
  <path class="fil3" d="M14034 13810l0 -190 53 0 0 0c-208,-230 -292,-438 -293,-630 -1,-618 870,-1078 1317,-1603l0 -3 152 0 -107 0 0 3c-413,689 -1340,1264 -722,2233l-400 0 0 190zm1230 -238l-343 0c-85,-309 -104,-604 -57,-901 43,-276 138,-529 229,-774 56,-151 114,-306 160,-466l12 0 0 2141zm-392 0l-411 0c-100,-162 -158,-315 -178,-468 -18,-142 -3,-281 46,-425 94,-273 299,-525 498,-769 126,-155 256,-314 358,-479l17 0c-191,658 -581,1221 -331,2141z"/>
  <polygon class="fil13" points="14115,14340 16440,14340 16440,13810 14115,13810 "/>
  <polygon class="fil4" points="14034,13810 16496,13810 16496,13621 14034,13621 "/>
  <path class="fil11" d="M14441 14060c3,-62 -85,-105 -112,-160 -27,54 -115,98 -112,160l0 280 225 0 0 -280 0 0z"/>
  <path class="fil14" d="M14440 14048c-8,-55 -86,-97 -112,-147l0 0c25,51 103,92 112,147zm-158 -91l0 0c10,-10 20,-20 29,-30 -9,10 -19,20 -29,30zm29 -31c0,0 0,0 0,0 0,0 0,0 0,0z"/>
  <path class="fil12" d="M14441 14331l-69 0 0 -247c2,-49 -53,-87 -89,-127 10,-10 20,-20 29,-30l0 0c0,0 0,0 0,0 7,-8 13,-17 17,-25 25,50 103,92 112,147 0,3 1,6 1,10 0,1 0,2 0,3l0 0 0 270z"/>
  <path class="fil11" d="M14757 14060c3,-62 -85,-105 -112,-160 -27,54 -115,98 -112,160l0 280 225 0 0 -280z"/>
  <path class="fil11" d="M15073 14060c3,-62 -85,-105 -112,-160 -27,54 -115,98 -112,160l0 0 0 280 225 0 0 -280z"/>
  <path class="fil11" d="M15389 14060c3,-62 -85,-105 -112,-160 -27,54 -115,98 -112,160l0 0 0 280 225 0 0 -280z"/>
  <path class="fil11" d="M15705 14060c3,-62 -85,-105 -112,-160 -27,54 -115,98 -112,160l0 280 225 0 0 -280 0 0z"/>
  <path class="fil11" d="M16021 14060c3,-62 -85,-105 -112,-160 -27,54 -115,98 -112,160l0 280 225 0 0 -280 0 0z"/>
  <path class="fil11" d="M16337 14060c3,-62 -85,-105 -112,-160 -27,54 -115,98 -112,160l0 280 225 0 0 -280z"/>
  <path class="fil4" d="M15384 11270l-240 0c-18,0 -32,14 -32,32l0 82 305 0 0 -82c0,-18 -15,-32 -32,-32z"/>
  <polygon class="fil5" points="15232,10420 15284,10420 15284,10365 15232,10365 "/>
  <polygon class="fil5" points="15221,10770 15294,10770 15294,10715 15221,10715 "/>
  <polygon class="fil5" points="15202,11170 15313,11170 15313,11115 15202,11115 "/>
  <path class="fil4" d="M15421 10287c-160,0 -290,-130 -290,-290 0,-41 9,-80 24,-116 -73,53 -120,138 -120,235 0,160 130,290 290,290 119,0 221,-72 266,-174 -48,35 -106,55 -170,55z"/>
  <path class="fil4" d="M15382 10618c0,69 -56,125 -125,125 -69,0 -124,-56 -124,-125 0,-69 56,-124 124,-124 69,0 125,56 125,124z"/>
  <path class="fil4" d="M15410 10987c0,84 -68,153 -153,153 -84,0 -153,-68 -153,-153 0,-84 68,-153 153,-153 84,0 153,68 153,153z"/>
  <path class="fil3" d="M16096 13621l-831 0 0 -48 345 0c85,-309 104,-604 57,-901 -43,-276 -138,-529 -229,-774 -56,-151 -114,-306 -160,-466l-13 0 0 -48 107 0c412,690 1343,1266 724,2237zm-768 -2189c191,658 581,1221 331,2141l411 0c100,-162 158,-315 177,-468 18,-142 3,-281 -46,-425 -93,-273 -299,-525 -498,-769 -126,-155 -257,-314 -358,-479l-17 0z"/>
  <path class="fil6" d="M15264 13621l-830 0c-618,-969 309,-1545 722,-2233l0 -3 107 0 0 48 -12 0c-46,160 -104,315 -160,466 -91,245 -186,498 -229,774 -47,298 -28,593 57,901l343 0 0 48zm-78 -2189c-102,165 -232,324 -358,479 -199,244 -405,496 -498,769 -49,144 -65,283 -46,425 20,153 78,307 178,468l411 0c-250,-920 140,-1483 331,-2141l-17 0z"/>
  <polygon class="fil7" points="16096,13621 14435,13621 16096,13621 "/>
  <path class="fil14" d="M14598 13957l0 0c18,-18 35,-35 45,-55 -10,19 -27,37 -45,55zm45 -55c0,0 0,0 0,0 0,0 0,0 0,0zm0 0c0,0 0,0 0,0 0,0 0,0 0,0zm0 -1c0,0 0,0 0,0 0,0 0,0 0,0z"/>
  <path class="fil12" d="M14757 14331l-69 0 0 -247c2,-49 -53,-87 -89,-127 18,-18 35,-35 45,-55l0 0c0,0 0,0 0,0l0 0c0,0 0,0 0,0 0,0 0,0 0,0 0,0 0,0 0,0l0 0c27,53 112,96 112,157 0,1 0,2 0,3l0 270z"/>
  <path class="fil14" d="M14914 13957l0 0c13,-13 25,-25 35,-38 -10,13 -22,25 -35,38zm35 -38c0,0 0,0 0,0 0,0 0,0 0,0zm0 -1c0,0 0,0 0,0 0,0 0,0 0,0zm11 -17l0 0 0 0zm0 0c0,0 0,0 0,0 0,0 0,0 0,0z"/>
  <path class="fil12" d="M15073 14331l-69 0 0 -247c2,-49 -53,-87 -89,-127 13,-13 25,-25 35,-38l0 0c0,0 0,0 0,0 0,0 0,0 0,0 0,0 0,0 0,0 4,-5 8,-11 11,-17l0 0c0,0 0,0 0,0 0,0 0,0 0,0l0 0c27,53 112,96 112,157 0,1 0,2 0,3l0 270z"/>
  <path class="fil14" d="M15230 13957l0 0c13,-12 25,-24 34,-37 -10,13 -22,25 -34,37zm34 -37c0,0 0,0 0,0 0,0 0,0 0,0zm12 -18l0 0 0 0zm0 0c0,0 0,0 0,0 0,0 0,0 0,0z"/>
  <path class="fil12" d="M15389 14331l-69 0 0 -247c2,-49 -53,-87 -89,-127 13,-12 25,-24 34,-37l0 0c0,0 0,0 0,0 4,-6 8,-12 11,-18l0 0c0,0 0,0 0,0 0,0 0,0 0,0l0 0c27,53 112,96 112,157 0,1 0,2 0,3l0 270z"/>
  <path class="fil14" d="M15547 13957l0 0c18,-18 36,-36 46,-55 -10,19 -28,37 -46,55zm46 -55c0,0 0,0 0,-1 0,0 0,0 0,1z"/>
  <path class="fil12" d="M15705 14331l-69 0 0 -247 0 0c2,-49 -53,-87 -89,-127 18,-18 36,-36 46,-55l0 0c0,0 0,0 0,-1l0 0c27,53 112,96 112,157 0,1 0,2 0,3l0 0 0 270z"/>
  <path class="fil14" d="M15863 13957l0 0c18,-18 36,-35 45,-55 -10,19 -27,37 -45,55zm45 -55c0,0 0,0 0,0 0,0 0,0 0,0zm0 0c0,0 0,0 0,0 0,0 0,0 0,0zm0 -1c0,0 0,0 0,0 0,0 0,0 0,0z"/>
  <path class="fil12" d="M16021 14331l-69 0 0 -247c2,-49 -53,-87 -89,-127 18,-18 36,-35 45,-55l0 0c0,0 0,0 0,0l0 0c0,0 0,0 0,0 0,0 0,0 0,0 0,0 0,0 0,0l0 0c27,53 112,96 112,157 0,1 0,2 0,3l0 0 0 270z"/>
  <path class="fil14" d="M16179 13957l0 0c12,-12 24,-24 33,-36 -10,12 -21,24 -33,36zm34 -36c0,0 0,0 0,0 0,0 0,0 0,0zm12 -19c0,0 0,0 0,0 0,0 0,0 0,0z"/>
  <path class="fil12" d="M16337 14331l-69 0 0 -247c2,-49 -53,-87 -89,-127 12,-12 24,-24 33,-36 0,0 0,0 0,0 0,0 0,0 0,0 5,-6 9,-13 12,-19 0,0 0,0 0,0l0 0c27,53 112,96 112,157 0,1 0,2 0,3l0 270z"/>
  <polygon class="fil14" points="14115,13845 16440,13845 16440,13810 14115,13810 "/>
  <polygon class="fil13" points="12948,17261 17613,17261 17613,14499 12948,14499 "/>
  <polygon class="fil4" points="12948,14765 17690,14765 17690,14631 12948,14631 "/>
  <polygon class="fil14" points="12948,14811 17613,14811 17613,14765 12948,14765 "/>
  <polygon class="fil9" points="12965,17261 17613,17261 17613,16944 12965,16944 "/>
  <path class="fil11" d="M13870 17261l-606 0 0 -1851c0,-139 113,-252 252,-252l101 0c139,0 252,113 252,252l0 1851z"/>
  <path class="fil4" d="M13567 15067c-217,0 -394,177 -394,394l0 1801 91 0 0 -1801c0,-167 136,-303 303,-303 167,0 303,136 303,303l0 1801 91 0 0 -1801c0,-217 -177,-394 -394,-394z"/>
  <path class="fil12" d="M13870 17261l-213 0 0 -1700c0,-167 -136,-303 -303,-303 -4,0 -8,0 -13,0 53,-59 128,-97 213,-101 0,0 0,0 0,0 0,0 1,0 1,0 0,0 0,0 0,0 0,0 1,0 1,0 0,0 0,0 0,0 0,0 0,0 1,0 0,0 0,0 0,0 0,0 0,0 1,0 0,0 0,0 0,0 0,0 0,0 1,0 0,0 0,0 0,0 0,0 0,0 1,0 0,0 0,0 0,0 0,0 0,0 1,0 0,0 0,0 0,0 0,0 0,0 1,0 0,0 0,0 0,0 0,0 0,0 1,0 0,0 0,0 0,0 0,0 0,0 1,0 0,0 0,0 0,0 0,0 0,0 1,0 0,0 0,0 0,0 0,0 1,0 1,0l0 0c152,0 277,111 299,257 2,15 3,30 3,46l0 1801z"/>
  <path class="fil7" d="M13870 17261l0 -1801 0 1801zm-3 -1847c-22,-145 -148,-257 -299,-257l0 0c152,0 277,111 299,257zm-312 -256c0,0 0,0 0,0 0,0 0,0 0,0zm1 0c0,0 0,0 0,0 0,0 0,0 0,0zm1 0c0,0 0,0 0,0 0,0 0,0 0,0zm1 0c0,0 0,0 0,0 0,0 0,0 0,0zm1 0c0,0 0,0 0,0 0,0 0,0 0,0zm1 0c0,0 0,0 0,0 0,0 0,0 0,0zm1 0c0,0 0,0 0,0 0,0 0,0 0,0zm1 0c0,0 0,0 0,0 0,0 0,0 0,0zm1 0c0,0 0,0 0,0 0,0 0,0 0,0zm1 0c0,0 0,0 0,0 0,0 0,0 0,0zm1 0c0,0 0,0 0,0 0,0 0,0 0,0zm1 0c0,0 0,0 0,0 0,0 0,0 0,0z"/>
  <path class="fil11" d="M14970 17261l-605 0 0 -1851c0,-139 113,-252 252,-252l102 0c139,0 252,113 252,252l0 1851z"/>
  <path class="fil4" d="M14667 15067c-217,0 -394,177 -394,394l0 1801 91 0 0 -1801c0,-167 135,-303 303,-303 167,0 303,136 303,303l0 1801 91 0 0 -1801c0,-217 -177,-394 -394,-394z"/>
  <path class="fil12" d="M14970 17261l-213 0 0 -1700c0,-167 -136,-303 -303,-303l0 0c-4,0 -8,0 -13,0 50,-56 120,-93 200,-100 0,0 0,0 0,0 0,0 1,0 1,0 0,0 0,0 0,0 0,0 1,0 1,0 0,0 0,0 0,0 0,0 0,0 1,0 0,0 0,0 0,0 0,0 0,0 1,0 0,0 0,0 0,0 0,0 1,0 1,0 0,0 0,0 0,0 0,0 0,0 1,0 0,0 0,0 0,0 0,0 0,0 1,0 0,0 0,0 0,0 0,0 1,0 1,0 0,0 0,0 0,0 0,0 0,0 1,0 0,0 0,0 0,0 0,0 1,0 1,0 0,0 0,0 0,0 1,0 1,0 2,0l0 0c0,0 1,0 1,0 0,0 0,0 0,0 0,0 1,0 1,0 0,0 0,0 0,0 0,0 0,0 0,0 0,0 0,0 0,0 0,0 0,0 1,0 0,0 0,0 0,0 0,0 0,0 1,0 0,0 0,0 0,0 0,0 0,0 1,0 0,0 0,0 0,0 0,0 0,0 1,0 0,0 0,0 0,0 0,0 0,0 1,0 0,0 0,0 0,0 0,0 0,0 0,0 0,0 0,0 0,0 0,0 0,0 1,0 0,0 0,0 1,0 0,0 0,0 1,0 0,0 0,0 0,0 0,0 0,0 1,0 0,0 0,0 0,0 0,0 1,0 1,0 167,0 303,136 303,303l0 1801z"/>
  <path class="fil7" d="M14970 17261l0 -1801 0 1801zm-329 -2102c0,0 0,0 0,0 0,0 0,0 0,0zm1 0c0,0 0,0 0,0 0,0 0,0 0,0zm1 0c0,0 0,0 0,0 0,0 0,0 0,0zm1 0c0,0 0,0 0,0 0,0 0,0 0,0zm1 0c0,0 0,0 0,0 0,0 0,0 0,0zm1 0c0,0 0,0 0,0 0,0 0,0 0,0zm1 0c0,0 0,0 0,0 0,0 0,0 0,0zm1 0c0,0 0,0 0,0 0,0 0,0 0,0zm1 0c0,0 0,0 0,0 0,0 0,0 0,0zm1 0c0,0 0,0 0,0 0,0 0,0 0,0zm1 0c0,0 0,0 0,0 0,0 0,0 0,0zm2 0l0 0 0 0zm1 0c0,0 0,0 0,0 0,0 0,0 0,0zm1 0c0,0 0,0 0,0 0,0 0,0 0,0zm1 0c0,0 0,0 0,0 0,0 0,0 0,0zm1 0c0,0 0,0 0,0 0,0 0,0 0,0zm1 0c0,0 0,0 0,0 0,0 0,0 0,0zm1 0c0,0 0,0 0,0 0,0 0,0 0,0zm1 0c0,0 0,0 0,0 0,0 0,0 0,0zm1 0c0,0 0,0 0,0 0,0 0,0 0,0zm1 0c0,0 0,0 0,0 0,0 0,0 0,0zm1 0c0,0 0,0 1,0 0,0 0,0 -1,0zm1 0c0,0 0,0 0,0 0,0 0,0 0,0zm1 0c0,0 0,0 0,0 0,0 0,0 0,0z"/>
  <path class="fil11" d="M16070 17261l-606 0 0 -1851c0,-139 113,-252 252,-252l101 0c139,0 252,113 252,252l0 1851z"/>
  <path class="fil4" d="M15767 15067c-217,0 -394,177 -394,394l0 1801 91 0 0 -1801c0,-167 136,-303 303,-303 167,0 303,136 303,303l0 1801 91 0 0 -1801c0,-217 -177,-394 -394,-394z"/>
  <path class="fil12" d="M16070 17261l-213 0 0 -1700c0,-167 -135,-303 -303,-303 -4,0 -8,0 -12,0 51,-57 122,-94 203,-100l0 0c0,0 1,0 1,0l0 0c0,0 1,0 1,0l0 0c0,0 1,0 1,0l0 0c0,0 1,0 1,0 0,0 0,0 0,0 0,0 1,0 1,0l0 0c2,0 4,0 5,0 0,0 0,0 0,0 0,0 1,0 1,0 0,0 0,0 0,0 0,0 1,0 1,0 0,0 0,0 0,0 0,0 0,0 1,0 0,0 0,0 0,0 0,0 1,0 1,0 0,0 0,0 0,0 0,0 0,0 1,0 0,0 0,0 0,0 0,0 0,0 1,0 0,0 0,0 0,0 0,0 0,0 1,0 0,0 0,0 0,0 0,0 0,0 1,0 0,0 0,0 0,0 0,0 0,0 1,0 0,0 0,0 1,0 0,0 0,0 1,0 0,0 0,0 0,0 0,0 0,0 1,0 0,0 0,0 0,0 0,0 1,0 1,0 1,0 1,0 2,0 166,1 301,136 301,303l0 1801z"/>
  <path class="fil7" d="M16070 17261l0 -1801c0,-167 -134,-302 -301,-303 166,1 301,136 301,303l0 1801zm-326 -2102l0 0 0 0zm1 0l0 0 0 0zm1 0l0 0 0 0zm1 0l0 0 0 0zm1 0c0,0 0,0 0,0 0,0 0,0 0,0zm1 0l0 0 0 0zm5 0c0,0 0,0 0,0 0,0 0,0 0,0zm1 0c0,0 0,0 0,0 0,0 0,0 0,0zm1 0c0,0 0,0 0,0 0,0 0,0 0,0zm1 0c0,0 0,0 0,0 0,0 0,0 0,0zm1 0c0,0 0,0 0,0 0,0 0,0 0,0zm1 0c0,0 0,0 0,0 0,0 0,0 0,0zm1 0c0,0 0,0 0,0 0,0 0,0 0,0zm1 0c0,0 0,0 0,0 0,0 0,0 0,0zm1 0c0,0 0,0 0,0 0,0 0,0 0,0zm1 0c0,0 0,0 1,0 0,0 0,0 -1,0zm1 0c0,0 0,0 0,0 0,0 0,0 0,0zm1 0c0,0 0,0 0,0 0,0 0,0 0,0z"/>
  <path class="fil11" d="M17170 17261l-605 0 0 -1851c0,-139 113,-252 252,-252l102 0c139,0 252,113 252,252l0 1851z"/>
  <path class="fil4" d="M16867 15067c-217,0 -394,177 -394,394l0 1801 91 0 0 -1801c0,-167 136,-303 303,-303 167,0 303,136 303,303l0 1801 91 0 0 -1801c0,-217 -177,-394 -394,-394z"/>
  <path class="fil12" d="M17170 17261l-213 0 0 -1700c0,-167 -136,-303 -303,-303 -4,0 -8,0 -12,0 53,-59 129,-97 213,-101l0 0c0,0 1,0 1,0 0,0 0,0 0,0 0,0 1,0 1,0 0,0 0,0 0,0 0,0 0,0 1,0 0,0 0,0 0,0 0,0 0,0 1,0 0,0 0,0 0,0 0,0 0,0 0,0 0,0 0,0 0,0 0,0 0,0 1,0 0,0 0,0 0,0 0,0 0,0 1,0 0,0 0,0 0,0 0,0 0,0 1,0 0,0 0,0 0,0 0,0 0,0 1,0 0,0 0,0 1,0 0,0 0,0 1,0 0,0 0,0 0,0 0,0 0,0 1,0 0,0 0,0 0,0 0,0 1,0 1,0l0 0c152,0 277,111 299,257 2,15 3,30 3,46l0 1801z"/>
  <path class="fil7" d="M17170 17261l0 -1801 0 1801zm-3 -1847c-22,-145 -148,-257 -299,-257l0 0c151,0 277,111 299,257zm-312 -256l0 0 0 0zm1 0c0,0 0,0 0,0 0,0 0,0 0,0zm1 0c0,0 0,0 0,0 0,0 0,0 0,0zm1 0c0,0 0,0 0,0 0,0 0,0 0,0zm1 0c0,0 0,0 0,0 0,0 0,0 0,0zm1 0c0,0 0,0 0,0 0,0 0,0 0,0zm1 0c0,0 0,0 0,0 0,0 0,0 0,0zm1 0c0,0 0,0 0,0 0,0 0,0 0,0zm1 0c0,0 0,0 0,0 0,0 0,0 0,0zm1 0c0,0 0,0 1,0 0,0 0,0 -1,0zm1 0c0,0 0,0 0,0 0,0 0,0 0,0zm1 0c0,0 0,0 0,0 0,0 0,0 0,0z"/>
  <polygon class="fil9" points="12948,14499 17644,14499 17644,14415 12948,14415 "/>
  <polygon class="fil9" points="12948,14415 17673,14415 17673,14331 12948,14331 "/>
  <polygon class="fil16" points="12948,14446 17644,14446 17644,14415 12948,14415 "/>
  <polygon class="fil14" points="12948,14530 17613,14530 17613,14499 12948,14499 "/>
  <polygon class="fil4" points="8349,13981 13001,13981 13001,13846 8349,13846 "/>
  <polygon class="fil22" points="8401,14026 12948,14026 12948,13981 8401,13981 "/>
  <polygon class="fil10" points="8376,13728 12973,13728 12973,13644 8376,13644 "/>
  <polygon class="fil10" points="8349,13644 13001,13644 13001,13559 8349,13559 "/>
  <polygon class="fil23" points="8376,13675 12973,13675 12973,13644 8376,13644 "/>
  <polygon class="fil22" points="8401,13759 12948,13759 12948,13728 8401,13728 "/>
  <polygon class="fil14" points="8828,12795 12505,12795 12505,12723 8828,12723 "/>
 </g>
</svg>
